<?xml version="1.0" standalone="no"?><!DOCTYPE svg PUBLIC "-//W3C//DTD SVG 1.1//EN" "http://www.w3.org/Graphics/SVG/1.1/DTD/svg11.dtd"><svg t="1551337887191" class="icon" style="" viewBox="0 0 1297 1024" version="1.1" xmlns="http://www.w3.org/2000/svg" p-id="2005" xmlns:xlink="http://www.w3.org/1999/xlink" width="81.0625" height="64"><defs><style type="text/css"></style></defs><path d="M771.36187203 1002.69816643c-269.41900724 72.19316991-546.41489062-89.37593894-619.38135534-361.69657724s86.13377303-550.73541417 355.54568517-622.92148897c269.41900724-72.19316991 546.42198573 89.36884383 619.38845045 361.68948213 72.96646542 272.32063901-86.14086743 550.74250857-355.55278028 622.92858408z m-5.19314069-19.38205001c258.75604133-69.33410456 411.47127031-336.69571956 341.36387165-598.35339267-69.85199946-260.69282802-336.050124-416.84177318-594.81326044-347.50057352s-411.46417591 336.68862516-341.35677583 598.34629827 337.02206419 416.57927747 594.80616462 347.50766792z" fill="#76BA52" p-id="2006"></path><path d="M763.22453315 952.94475657c134.70950291-36.09658496 242.14082944-131.35382657 296.46306765-258.09625697l-9.31501885-3.7387776c-53.16584284 123.31580932-157.94384168 216.82781523-289.74461914 252.14400956l2.59657034 9.69102501z m300.20893966-267.40418142c35.94760109-90.64584615 43.25488924-191.28777873 17.28918577-288.19802881l-2.85197095-10.65587009-9.69102501 2.59657034 2.85197095 10.65587009c25.44780856 94.9734634 19.55941078 193.14652558-16.91317961 281.86268086l9.31501885 3.73877761z m-98.05955104-489.95722247c-96.08729234-98.89669688-232.96060494-148.43727326-369.25217159-133.73046761l0.65978437 10.20891921c134.34768627-14.18181421 266.8366257 34.45067159 361.17158794 130.7011366l7.42789368-7.1866826z m-379.19859721-132.09874376c-19.19049903 2.02191951-38.83504476 6.24312002-58.22418847 11.44335582-80.42983183 21.54585829-151.98450059 64.60919795-208.66209733 124.46511099l7.18668259 7.42789369c54.99621137-58.37317234 124.86949475-99.93958109 204.34157449-121.23713459 18.41010983-4.93064639 38.04755974-9.1589413 57.24515389-11.18795451l-1.88712517-10.9112714z m-375.09800154 329.01242597c-20.8435075 77.25861066-21.92186514 158.56105963-0.62431165 238.03313938a460.638488 460.638488 0 0 0 69.91584979 148.49402847l7.690388-6.21474241c-31.40005596-43.51738425-53.88947683-92.54006501-67.91521277-144.87585641-20.77256348-77.52819936-20.41074613-157.60330825-0.02128393-232.66263792l-9.04542944-2.77393111z m75.50627984 394.21755655c61.49473199 82.19635074 149.84197482 140.57661749 248.36975996 167.1524438l2.50434241-10.02446404c-96.06600913-25.14984154-182.22106537-83.0831574-243.19080807-163.34981586l-7.6832943 6.2218361z m469.85153706 168.05343997l6.78939323-1.82327484-2.59657034-9.69102501-6.78229884 1.81618044 2.59657035 9.691025z" fill="#76BA52" p-id="2007"></path><path d="M459.56768922 494.18894609l6.49142552 24.22756287 47.48318484-12.72035743-6.49142622-24.22756217-47.48318414 12.72035673z m57.86946553 26.04374331l-47.48318413 12.72035672 3.37696025 12.59975118-14.54363227 3.90194957-27.7889783-103.69964191 62.02681641-16.62230771-5.71103631-21.31883599 15.50847806-4.15734947 5.71103561 21.31883529 62.99875659-16.88480201 27.526484 102.72770313-14.54363227 3.90194957-3.12155965-11.6349061-47.48318485 12.72035744 11.69166132 43.61670658-15.50847736 4.15735018-11.6845669-43.60961219z m11.60652779-18.70098245l47.49027924-12.72745183-6.48433182-24.22046777-47.49027925 12.72745184 6.49142623 24.22756217z m37.36649216-50.51961167l-6.49142622-24.22756217-47.49027854 12.72745113 6.49142551 24.22756287 47.49027925-12.72745183z m-69.74558272-8.30760595l-47.48318485 12.72035743 6.49142623 24.22756217 47.48318413-12.72035672-6.49142551-24.22756288z m80.10348579-84.8283931l9.86129208 36.82021894-14.53653715 3.89485588-6.22893123-23.25562269-148.27410058 39.72894582 6.49142623 24.22756217-14.54363156 3.90195028-10.3862821-38.76409933 81.40886642-21.8154484c-3.49756651-5.29955744-6.72554291-9.62008028-10.9325546-13.68520252l15.70002832-7.32857135c3.2350708 4.32761724 6.99513232 10.59911558 10.74809804 16.84932929l80.42983184-21.54585828z m133.9078305 46.17780492l-18.01991417 14.17471981-12.72745183-47.49027925 21.31883601-5.71103489-3.89485517-14.53653787-21.31883671 5.7110356-10.641682-39.72894512-14.54363156 3.90195028 10.64168199 39.72894512-24.22046775 6.48433181 3.90195028 14.54363156 24.22756215-6.49142622 14.01864155 52.328697c-7.94578931 5.24989662-16.14697851 9.52075865-25.32010791 14.05411498l7.77552153 13.50784104c7.22924972-4.02255582 14.46559243-8.03801724 21.43944225-13.02541886l13.50074735 50.39191102c1.56077983 5.81745234-0.56755572 9.50656913-5.41306929 10.80485467-5.81745234 1.56077983-10.6629652 2.85906465-16.73581813 3.44081058l7.06607634 14.72808744 18.41010982-4.93064639c11.63490539-3.12156036 15.8844835-10.49269813 12.50752324-23.09244931l-16.09731699-60.08293532 18.01282047-14.18181492-3.88776147-14.52944276z m21.29045838-21.29045839l30.04501452-8.05220605-3.89485517-14.53653786-30.04501522 8.05220675-16.35981198-61.05487622-15.50138296 4.15025577 44.66668521 166.69130482c1.29828553 4.84551215 0.13479506 8.27922834-4.1928222 11.51429914l7.78261665 13.50074734c17.3672249-8.81131205 32.28686262-19.04861028 45.26971434-28.75382409l-6.81067643-13.76324164c-7.6832943 6.2218361-15.373683 12.43657922-25.24916388 18.19727563l-25.71030288-95.94540359z m107.21139794 93.84544494c8.72617922-2.34117045 14.01154785-5.83873555 16.58683428-11.72003892 3.54722662-6.14379768 2.56109834-21.46072475-2.69589268-44.97884174l-15.8419178-0.94356258c4.2282949 19.63744991 5.39888048 31.79025092 4.51207383 36.18171778-1.15639607 3.42662178-4.51916752 6.40629269-9.36468037 7.70457751l-10.66296521 2.85906606c-5.81745234 1.56077983-9.49947402-0.57465083-11.06025456-6.39210388l-23.88702873-89.15601105c13.24534674-8.74746313 26.92345556-19.68711144 41.06270266-32.81894633l-12.10313879-10.25858144a138.877809 138.877809 0 0 1-33.10981964 27.57614482l-17.14729632-63.9706968-15.50847804 4.15735089 45.96497142 171.53681626c3.63236087 13.56459767 11.27308875 18.79321038 23.87283993 15.41625011l19.38205002-5.19314069z m-377.54559015 126.08974114l-8.05929974 12.54299596c18.62294331 7.48464962 34.33716045 15.73550035 45.90821552 24.0572951l7.81099425-13.51493615c-12.55008966-8.06639485-28.0089069-15.35239979-45.65281492-23.09245002z m175.65869584 155.48206569l-37.79215985 10.12378709a161.291696 161.291696 0 0 1-34.96856648 5.2144239 53.747177 53.747177 0 0 1-27.40587846-9.27245174c-3.95161109-3.10027716-7.12283227-3.29182673-10.03155845-2.51143681-4.83841775 1.29119112-10.96093222 13.33047957-17.39560251 35.82699555l-14.49397075-7.54140555c6.9596596-20.56682369 13.53621936-34.79120573 21.21241926-41.00594743l-17.39560252-64.92844747-30.03792081 8.04511093-3.89485517-14.53653786 44.57445797-11.93996681 21.2904584 79.46498604c2.20637539 0.44695088 4.66105698 1.86584125 6.14379696 3.54722733 6.40629269 4.51916752 13.52203055 7.80389984 20.11987353 9.1518469 7.56268875 1.09254574 17.77160867 0.43276208 30.37135983-2.9441996l42.63767199-11.4220712 30.04501523-8.05220675c10.6629652-2.85906465 18.41010983-4.93064639 22.99312767-7.2008707l0.28377751 16.54426787-46.51833836 12.46495683z m-83.69328025-157.27696291c10.02446404 2.50434241 20.30432939 5.98771941 28.64740736 9.98899203a345.840056 345.840056 0 0 0 25.8167196-27.68965597l-94.97346339 25.44780856-3.37696027-12.59975117 115.32745432-30.90344427 2.85197024 10.6558708c-9.74068653 14.03992546-21.68065334 27.62580634-33.88311517 40.23974633l4.65396258 1.87293565 42.63767199-11.4220712 25.44780787 94.97346269c2.85906465 10.6629652-1.39760716 18.02700927-13.02541816 21.14147523l-17.44526404 4.67524508-7.2434378-11.55686697 16.72872444-3.44790428c4.84551215-1.29828553 6.97384841-4.98740161 5.93805789-8.86097428l-4.41275078-16.47332243-35.85537316 9.60589077 9.86129138 36.82021965-14.54363156 3.90195027-9.86129209-36.82022036-35.85537315 9.60589218 10.12378638 37.79215914-14.53653716 3.89485587-30.37845496-113.38357322 53.3006379-14.28113655c-9.30792445-3.74587201-20.55972929-6.96675401-32.78347501-9.92514241l6.83905475-13.25244114z m-1.39760786 76.20153622l4.93774009 18.41720494 35.86246826-9.61298588-4.93774079-18.41720423-35.86246756 9.61298517z m50.39900472-13.50784104l4.93774079 18.41720423 35.85537387-9.60589148-4.9377408-18.41720422-35.85537386 9.60589147z m32.47841359-22.20564265l-5.19314069-19.38205002-35.85537385 9.60589147 5.19314068 19.38205002 35.85537386-9.60589147z m-50.39191102 13.50074734l-5.19314068-19.38205001-35.86246827 9.61298587 5.19314141 19.38204931 35.86246754-9.61298517z m112.44710505-115.28488719l-8.06639486 12.53590086c18.88543761 8.442401 33.62771456 16.95574603 45.20586403 25.2846366l7.54140554-14.49397075c-12.54299525-8.05930045-27.0298716-15.6078004-44.68087471-23.34075551z m180.49711287 154.17668647l-39.72894511 10.64168199a163.729733 163.729733 0 0 1-35.93341299 5.46982451 53.747177 53.747177 0 0 1-27.40587775-9.27245245c-3.95161109-3.10027716-7.12283227-3.29182673-10.03155845-2.51143681-4.84551215 1.29828553-10.96093222 13.33047957-18.1121428 37.05433705l-14.48687635-7.53431114c6.6971653-21.53876388 13.52912496-34.79830014 21.21241926-41.00594743l-17.39560251-64.92844889-31.0027666 8.30051225-3.90195027-14.54363156 45.54639886-12.20246182 21.29755208 79.47207974c2.19928099 0.45404529 4.65396187 1.87293636 7.10864418 3.29182743 7.37823288 4.25667322 14.49397074 7.54140554 21.0847193 8.89644559 7.56268875 1.09254574 18.48105385-0.80167312 31.34329934-3.20669319l43.60961217-11.68456692 28.10113483-7.52721674c9.69102501-2.59657035 17.44526333-4.67524579 22.02828189-6.9454708l0.28377822 16.54426858-43.6167073 11.69166061z m-14.57910356-27.26398829l-30.03792082 8.04511094-7.77552223-13.49365294c9.95351931-1.62463016 19.64454432-4.2212005 28.37072353-6.56236954 5.81745234-1.56077983 7.9386949-5.24280222 6.37791438-11.06025527l-24.40492365-91.09279632-80.43692553 21.55295339-4.15735018-15.50847876 80.43692624-21.55295269-9.34339716-34.88343226 15.50847804-4.15735088 9.34339648 34.88343297 31.98180118-8.57010096 4.15735019 15.50847735-31.9818012 8.57010096 25.18531426 94.0015232c4.60430106 13.31629076-0.62431165 20.94282984-13.22406353 24.31979081z m-78.48595076-79.72038665c17.72904225 11.86902208 32.27976822 23.5535897 42.17653161 33.36522026l-10.25148634 12.09604508c-11.13119929-10.52107645-24.73126898-22.46104326-42.4461217-34.33006605l10.52107643-11.13119929z" fill="#508733" p-id="2008"></path></svg>