<?xml version="1.0" standalone="no"?><!DOCTYPE svg PUBLIC "-//W3C//DTD SVG 1.1//EN" "http://www.w3.org/Graphics/SVG/1.1/DTD/svg11.dtd"><svg t="1551338085492" class="icon" style="" viewBox="0 0 1297 1024" version="1.1" xmlns="http://www.w3.org/2000/svg" p-id="1742" xmlns:xlink="http://www.w3.org/1999/xlink" width="81.0625" height="64"><defs><style type="text/css"></style></defs><path d="M761.45809602 993.86161044c-269.41900724 72.19316991-546.41489062-89.37593894-619.38135533-361.69657725s86.13377303-550.73541417 355.54568516-622.92148897c269.41900724-72.19316991 546.42198573 89.36884383 619.38845045 361.68948213 72.96646542 272.32063901-86.14086743 550.74250857-355.55278028 622.92858409z m-5.19314069-19.38205002c258.75604133-69.33410455 411.47127031-336.69571956 341.36387166-598.35339267-69.85199946-260.69282802-336.050124-416.84177318-594.81326044-347.50057351s-411.46417591 336.68862516-341.35677585 598.34629826 337.02206419 416.57927747 594.80616463 347.50766792z" fill="#D2624B" p-id="1743"></path><path d="M753.32075715 944.10820058c134.70950291-36.09658496 242.14082944-131.35382657 296.46306764-258.09625697l-9.31501886-3.73877761c-53.16584284 123.31580932-157.94384167 216.82781523-289.74461914 252.14400956l2.59657036 9.69102502z m300.20893965-267.40418143c35.94760109-90.64584615 43.25488924-191.28777873 17.28918577-288.19802881l-2.85197095-10.65587009-9.69102502 2.59657034 2.85197097 10.65587009c25.44780855 94.9734634 19.55941078 193.14652558-16.91317962 281.86268086l9.31501885 3.73877761z m-98.05955104-489.95722247c-96.08729234-98.89669687-232.96060494-148.43727326-369.25217159-133.73046761l0.65978436 10.20891921c134.34768627-14.18181421 266.8366257 34.45067159 361.17158794 130.7011366l7.42789369-7.1866826z m-379.19859721-132.09874376c-19.19049903 2.02191951-38.83504476 6.24312002-58.22418846 11.44335582-80.42983183 21.54585829-151.98450059 64.60919795-208.66209734 124.46511099l7.1866826 7.42789369c54.99621137-58.37317234 124.86949475-99.93958109 204.34157449-121.23713459 18.41010983-4.93064639 38.04755974-9.1589413 57.24515388-11.1879545l-1.88712517-10.91127141z m-375.09800153 329.01242597c-20.8435075 77.25861066-21.92186514 158.56105963-0.62431166 238.03313938a460.638488 460.638488 0 0 0 69.9158498 148.49402848l7.69038799-6.21474241c-31.40005596-43.51738425-53.88947683-92.54006501-67.91521277-144.87585642-20.77256348-77.52819936-20.41074613-157.60330825-0.02128392-232.66263791l-9.04542944-2.77393112z m75.50627984 394.21755656c61.49473199 82.19635074 149.84197482 140.57661749 248.36975995 167.15244379l2.5043424-10.02446404c-96.06600913-25.14984154-182.22106537-83.0831574-243.19080806-163.34981586l-7.68329429 6.22183611z m469.85153705 168.05343996l6.78939324-1.82327483-2.59657036-9.69102502-6.78229883 1.81618044 2.59657034 9.69102502zM444.69779481 493.95086936l6.49142622 24.22756217 47.48318415-12.72035673-6.49142621-24.22756215-47.48318416 12.72035671z m57.86946553 26.0437419l-47.48318414 12.72035814 3.37696026 12.59975118-14.54363227 3.90194957-27.78897831-103.69964191 62.02681642-16.62230771-5.71103631-21.318836 15.50847806-4.15735088 5.7110356 21.3188367 62.9987566-16.88480201 27.526484 102.72770172-14.54363157 3.90195028-3.11446595-11.62781099-48.45512433 12.98285244 11.68456621 43.60961147-15.50847736 4.15735018-11.68456691-43.60961218z m10.64877639-18.43848673l48.45512504-12.98285173-6.49142622-24.22756217-48.45512504 12.98285173 6.49142622 24.22756217z m38.33133796-50.77501158l-6.49142622-24.22756216-48.45512363 12.98285173 6.49142481 24.22756217 48.45512504-12.98285174z m-69.49018212-7.34276086l-47.48318485 12.72035743 6.49142622 24.22756217 47.48318415-12.72035673-6.49142552-24.22756287z m78.8690506-85.53783829l9.86838719 36.82731405-14.53653787 3.89485517-6.2289305-23.25562197-148.2741006 39.72894582 6.49142552 24.22756146-14.53653716 3.89485587-10.3862821-38.76409932 81.40886643-21.81544841c-3.50466092-5.29246303-6.73973172-9.62008028-10.94674341-13.68520251l15.70002834-7.32857136c3.23507079 4.32761724 6.99513232 10.59911558 10.75519242 16.8564237l80.42983184-21.54585829z m133.90783049 46.17780492l-18.01281975 14.18181422-12.72745113-47.49027855 21.31883529-5.7110356-3.90194957-14.54363227-21.318836 5.71103631-10.6416827-39.72894582-14.53653716 3.89485587 10.64168199 39.72894512-24.22756216 6.49142622 3.90195027 14.54363156 24.22756218-6.4914262 14.01864224 52.32869769c-7.94578931 5.24989662-16.14697851 9.52075865-25.32010861 14.05411426l7.78261663 13.50074736c7.22215532-4.01546142 14.45849803-8.03092284 21.43234786-13.01832446l13.50784103 50.39900471c1.56077983 5.81745234-0.57465083 9.49947402-5.42016368 10.79776026-4.84551215 1.29828553-10.65587081 2.85197025-16.73581815 3.44081059l7.06607635 14.72808743 18.41011054-4.93064567c11.63490539-3.12156036 15.8915779-10.49979253 12.52171204-23.09244932l-16.1044121-60.09003043c5.99481452-4.7178122 12.26631215-8.47787302 18.00572607-14.17472052l-3.88776148-14.52944276z m22.26239859-21.55295269l30.04501521-8.05220675-3.88776147-14.52944275-30.04501451 8.05220604-16.3598127-61.05487551-15.50847735 4.15735017 44.6595915 166.68420971c1.29828553 4.84551215 0.14188946 8.27213393-4.18572849 11.50720544l7.78261665 13.50074736c17.3672249-8.81131205 32.27976822-19.04151588 45.26262065-28.74673041l-6.81067646-13.76324165c-7.6761999 6.2147417-15.35239979 12.42948482-25.23497507 18.18308683l-25.70320916-95.93830847z m107.21139722 93.84544424c8.72617922-2.34117045 14.01864225-5.83164115 16.59392939-11.71294382 3.54722662-6.14379767 2.56109834-21.46072475-2.69589268-44.97884173l-15.84901149-0.95065769c4.2282949 19.63744991 5.39888048 31.79025092 3.53303781 36.4513079-1.14930166 3.41952738-4.51207312 6.39919828-9.35758456 7.6974831l-10.6558715 2.85197095c-5.81745234 1.56077983-9.50656913-0.56755572-11.06734896-6.38500947l-23.88702803-89.15601034c13.24534674-8.74746313 26.92345556-19.68711143 41.06270265-32.81894634l-12.10313948-10.25858214a138.877809 138.877809 0 0 1-33.10981965 27.57614481l-17.14020191-63.96360239-15.50138365 4.15025648 45.95787703 171.52972186c3.63945527 13.57169209 11.27308875 18.79321038 23.86574553 15.42334452l20.3539895-5.4556357z m-179.93665086 212.32993091l-82.3666178 22.0637539 11.1666713 41.67282621 95.93830917-25.70320845 3.89485588 14.53653715-111.45388164 29.86765374-48.29904678-180.25590178 107.57321458-28.82476882 3.89485587 14.53653715-92.06473722 24.66741866 9.60589217 35.85537314 82.37371152-22.07084759 19.73677295 73.65462669z m-98.20853489-37.05433563l11.94706122 44.58155237 67.83008065-18.16889802-11.94706192-44.58155308-67.83717436 18.17599313z m-22.0850364 18.39592031c-7.42079929 7.1795882-15.10409359 13.3872355-22.79448299 19.60197791l-11.68456692-43.60961219 26.16434886-7.00932112-3.89485589-14.53653715-26.16434884 7.00932111-10.38628139-38.76410003-14.53653717 3.89485587 10.3862814 38.76410004-30.04501523 8.05220536 3.9019503 14.54363154 30.0450152-8.05220534 13.23825234 49.41997012c-9.62717468 6.73263731-20.47459575 12.75582944-30.35007734 18.51652657l8.03092356 14.47268754c8.91063509-5.50529652 17.55877518-11.98253393 26.47650396-17.48073676l14.54363226 54.27257809c1.29119111 4.83841775-0.12060625 7.30019374-4.00127331 8.34307867-6.78229884 1.81618043-12.59265678 3.36986586-19.64454433 4.2212005l6.80358206 13.75614725 21.3259304-5.71813071c10.65587081-2.85197025 13.94060313-9.96770811 11.08863287-20.62357892l-17.14020262-63.96360309 23.04278849-18.64422652-4.41275007-16.47332314z m250.2426956 3.56851054l3.90194957 14.54363227c-17.04797397 13.91222551-36.55063024 26.40555995-60.18935206 38.97693352l-5.83873626-14.02573736c23.90831194-11.59233898 45.34065908-24.61066272 62.12613875-39.49482843z m-75.65526371-142.79718097l16.1044121 1.91550277c-3.13574917 30.96020019-7.12283227 54.88270093-13.365953 74.20799432 7.49883842-3.04352123 15.95542823-6.34953676 23.19177236-10.36499818a594.058304 594.058304 0 0 0 5.14347988-27.34912182l14.86288178 1.21315128c-7.58397196 41.49546544-15.09699919 71.56885756-22.5745544 90.18470647 13.75614725-6.80358204 27.25689459-14.57200988 40.23265192-24.2843181l3.63236087 13.56459768c-19.24016057 13.46527463-37.32392575 23.50392818-55.93267955 31.61288874l-7.50593282-12.52880645c2.64623187-1.7523301 4.06512224-4.2070117 5.7394132-5.6968468 4.44112839-10.54235965 9.27954684-27.41297215 14.48687634-50.62602771-10.14507029 4.79585133-19.32529409 9.33630206-29.71866987 13.16021321l-7.76842784-13.50074734c2.64623187-1.7523301 4.06512224-4.2070117 5.22151831-7.63363348 4.49788431-21.97862036 7.25762662-46.60347189 8.25085072-73.87455459z m109.93566752 53.63407623l-28.10822853 7.53431043 9.86838649 36.82731334 28.10822852-7.53431043-9.86129207-36.82021894z m23.43298416 33.19495248l29.07307502-7.78971104-9.86129206-36.82021895-29.07307504 7.78971105 9.86129208 36.82021894z m-5.03706314-53.70502096l34.88343298-9.34339647 17.39560321 64.92844818-85.27534399 22.84414382 10.91127141 40.70798041c1.56077983 5.81745234 5.24989662 7.94578931 12.02509964 6.13670328l56.20936336-15.06152718c6.78229884-1.81618043 9.88257458-5.76779153 11.74841725-10.42884851 0.90099617-4.39146757 0.49661241-13.6355417-2.42630329-28.43457315l15.83482269 0.95065627c1.69557489 14.08249187 2.35535925 24.3056013 2.23475299 31.60579504-1.53240222 9.76196974-7.02350993 16.41656791-18.39592101 20.51006848l-65.90038837 17.65809752c-12.59975118 3.37696026-19.97088965-0.88680736-23.09244931-12.52171205l-27.51938889-102.72060802-4.25667322 7.37823288-11.58524458-8.32179546c13.03960766-21.15566333 21.86510851-46.3693552 25.24916388-76.35761448l15.32402219-0.99322341c-1.34794634 6.59784226-1.7381413 12.93319021-3.08608764 19.51684366l49.41997082-13.23825163 3.12155895 11.63490539c-4.18572849 11.50720544-8.11605567 23.97925667-12.81967907 33.54967543z m-57.18130355 15.32402147l40.70088601-10.90417558c4.7107178-9.57751316 8.18700041-19.85028411 12.11023389-32.32943045l-39.72894583 10.6416827c-4.18572849 11.50720544-8.37855068 23.02150458-13.08217407 32.59192333z" fill="#D2624B" p-id="1744"></path></svg>