<?xml version="1.0" standalone="no"?><!DOCTYPE svg PUBLIC "-//W3C//DTD SVG 1.1//EN" "http://www.w3.org/Graphics/SVG/1.1/DTD/svg11.dtd"><svg class="icon" width="200px" height="200.00px" viewBox="0 0 1024 1024" version="1.1" xmlns="http://www.w3.org/2000/svg"><path fill="#ffffff" d="M1.152 452.8h451.776V1.024H1.088v451.776zM114.048 113.92h225.92v225.92h-225.92V113.92zM509.44 1.024v451.776h451.776V1.024h-451.84z m338.816 338.816h-225.92V113.92h225.92v225.92zM170.56 283.392h112.896V170.432H170.56v112.96zM1.152 961.024h451.776V509.248H1.088v451.776z m112.896-338.816h225.92v225.92h-225.92v-225.92z m677.696-451.776h-112.96v112.96h112.96V170.432zM509.376 961.024h112.96v-112.96H509.376v112.96z m112.96-338.816v225.92h112.896v-225.92H622.336z m225.856 225.92h-112.96v112.896h225.92v-225.92h-112.96v112.96z m0-225.92h112.96V509.248h-112.96v112.96zM509.376 509.248v112.96h112.96V509.248H509.376zM170.56 791.68h112.896v-112.96H170.56v112.96z" /></svg>