<?xml version="1.0" standalone="no"?><!DOCTYPE svg PUBLIC "-//W3C//DTD SVG 1.1//EN" "http://www.w3.org/Graphics/SVG/1.1/DTD/svg11.dtd"><svg t="1574041049574" class="icon" viewBox="0 0 1229 1024" version="1.1" xmlns="http://www.w3.org/2000/svg" p-id="4220" xmlns:xlink="http://www.w3.org/1999/xlink" width="240.0390625" height="200"><defs><style type="text/css"></style></defs><path d="M1228.949777 420.387341a98.303803 98.303803 0 0 0-30.10554-70.860659L870.755293 29.356656A103.49206 103.49206 0 0 0 798.051439 0.002048h-0.136533c-27.511412 0-53.247894 10.444779-72.635588 29.354608L614.414473 137.559106 503.549628 29.356656A102.877661 102.877661 0 0 0 430.91404 0.002048H430.91404c-27.579678 0-53.247894 10.444779-72.772121 29.354608L30.189508 349.390149a98.57687 98.57687 0 0 0 0 141.994383l170.461526 166.297267a35.498596 35.498596 0 0 0 8.874649 16.793567l328.088943 320.170026c19.387695 18.909829 45.192443 29.354608 72.703855 29.354608h0.136533c1.433597 0 2.594128-0.750932 4.027725-0.750932 1.365331 0 2.594128 0.750932 4.027726 0.750932h0.136533c27.511412 0 53.247894-10.444779 72.703854-29.354608l328.088944-320.170026c7.236252-7.031453 12.014909-15.701302 16.793567-24.439418l162.679141-158.787949c19.251161-18.773296 29.969007-43.963645 29.969007-70.860658z m-1156.43502 0c0-7.918917 3.208527-15.359969 8.874649-21.026092l328.088943-320.170026a30.583405 30.583405 0 0 1 21.572224-8.669849c8.191984 0 15.769568 3.003727 21.572223 8.669849l111.001378 108.338983-153.326626 149.640234 35.088996 34.406332c30.242073 29.559408 70.314526 45.670309 112.981108 45.670308 42.734848 0 82.807301-16.110901 112.91284-45.670308l40.413786-39.458055 256.682154 250.401633c5.802655 5.734389 8.874649 13.17544 8.874648 21.094357 0 1.911463-0.750932 3.54986-1.023997 5.256523l-52.974828 51.74603-72.635588-70.997191a36.863926 36.863926 0 0 0-51.199898 0 34.81593 34.81593 0 0 0 0 49.902833l72.635589 70.997192-45.602043 44.509777-72.635588-70.997191a36.863926 36.863926 0 0 0-51.199897 0 34.81593 34.81593 0 0 0 0 49.9711l72.703854 70.997191-47.172172 46.011642-72.635588-70.997192a36.863926 36.863926 0 0 0-51.199898 0 34.81593 34.81593 0 0 0 0 49.902834l72.635588 70.997191-45.055909 44.031912a29.627674 29.627674 0 0 1-17.339699 7.918918 30.378606 30.378606 0 0 1-17.476232-7.918918L81.457672 441.481698a29.081542 29.081542 0 0 1-8.942915-21.094357z m1075.197849 21.094357L1033.229635 552.960942c-4.232525-7.031453-7.850651-14.472504-13.926372-20.411692l-258.52535-252.313096a34.338065 34.338065 0 0 0-7.918917-38.297523 36.863926 36.863926 0 0 0-51.199898 0L620.012328 321.810471a90.931018 90.931018 0 0 1-105.676588 13.448506L730.604107 124.247133c0.136533-0.068267 0.2048-0.341333 0.341333-0.614399l45.397242-44.236711a31.129538 31.129538 0 0 1 43.007914 0l328.088944 320.170026c5.802655 5.666122 8.874649 13.107174 8.874649 21.026091a27.306612 27.306612 0 0 1-8.669849 20.957825z" p-id="4221" fill="#303133"></path></svg>