<?xml version="1.0" standalone="no"?><!DOCTYPE svg PUBLIC "-//W3C//DTD SVG 1.1//EN" "http://www.w3.org/Graphics/SVG/1.1/DTD/svg11.dtd"><svg class="icon" width="52px" height="52.00px" viewBox="0 0 1024 1024" version="1.1" xmlns="http://www.w3.org/2000/svg"><path fill="#515151" d="M695.5 255.3c0 2.1-0.2 3.4-0.5 4-31.5 56.2-78.6 140.7-141 253.1C491.4 625 444.6 709.2 413.3 765.1l-21.9 39.7c-3 4.8-7.1 7.1-12.5 7.1-3.6 0-23.5-10.4-59.8-31.3-4.8-3-7.1-7.1-7.1-12.5 0-3.6 6.6-16.5 19.6-38.9-42.5-19.3-81.8-45.1-117.7-77.3-35.9-32.1-66.9-68.6-93.1-109.4-5.9-9.2-8.9-19.5-8.9-30.8s3-21.6 8.9-30.8C166.5 411.2 223 356 290.6 315.6S432 254.8 512 254.8c26.5 0 53.2 2.5 80.4 7.6l24.1-43.3c3-4.8 7.1-7.1 12.5-7.1 1.5 0 4.1 0.9 8.1 2.7 3.8 1.8 8.5 4.1 13.8 6.9 5.4 2.8 10.2 5.5 14.7 8.3s9.1 5.4 14.1 8.3c4.9 2.8 7.8 4.5 8.7 5.2 4.7 2.8 7.1 6.8 7.1 11.9zM359.8 679.4l34.8-62.9c-25.9-18.8-46.1-42.4-60.8-71-14.5-28.5-21.8-58.8-21.8-90.6 0-36 9.1-69.5 27.2-100.5C271 389.2 214.3 441.7 169.1 512c49.8 76.8 113.2 132.6 190.7 167.4z m167.4-323.6c4.1-4.1 6.3-9.2 6.3-15.2 0-5.9-2.1-11-6.3-15.2-4.1-4.1-9.2-6.3-15.2-6.3-37.2 0-69.1 13.3-95.8 40s-40 58.6-40 95.8c0 5.9 2.1 11 6.3 15.2 4.1 4.1 9.2 6.3 15.2 6.3 5.9 0 11-2.1 15.2-6.3 4.1-4.1 6.3-9.2 6.3-15.2 0-25.6 9.1-47.5 27.2-65.6 18.1-18.1 40-27.2 65.6-27.2 5.9-0.1 11-2.2 15.2-6.3zM912 512c0 10.4-3 20.7-8.9 30.8-11.6 19.1-27.8 40.7-48.6 64.7-44.6 51.2-96.3 90.9-155.1 119.2-58.9 28.3-121.3 42.4-187.4 42.4l33.1-59c63.1-5.4 121.5-25.7 175.2-61.1 53.7-35.4 98.6-81.1 134.6-137.1-34.3-53.2-76.2-97-125.9-131.3l28.2-50c28.3 19.1 55.4 41.8 81.5 68.3 26 26.5 47.5 53.9 64.5 82.2 5.8 10.1 8.8 20.5 8.8 30.9z m-200-57.2c0 41.4-11.7 79.1-35.3 113.1-23.5 34.1-54.6 58.6-93.3 73.4l125-224.1c2.4 13.5 3.6 26 3.6 37.6z" /></svg>