<?xml version="1.0" standalone="no"?><!DOCTYPE svg PUBLIC "-//W3C//DTD SVG 1.1//EN" "http://www.w3.org/Graphics/SVG/1.1/DTD/svg11.dtd"><svg t="1575427554403" class="icon" viewBox="0 0 1024 1024" version="1.1" xmlns="http://www.w3.org/2000/svg" p-id="2987" xmlns:xlink="http://www.w3.org/1999/xlink" width="200" height="200"><defs><style type="text/css"></style></defs><path d="M512 1024C229.239467 1024 0 794.760533 0 512 0 229.239467 229.239467 0 512 0c282.760533 0 512 229.239467 512 512 0 282.760533-229.239467 512-512 512z m66.1504-307.4048l194.833067-189.44a37.137067 37.137067 0 0 0 0-53.589333l-194.833067-189.405867a39.7312 39.7312 0 0 0-55.0912 0 37.137067 37.137067 0 0 0 0 53.589333l128.341333 124.7232H277.845333c-21.504 0-38.946133 16.964267-38.946133 37.888 0 20.957867 17.408 37.888 38.946133 37.888h373.486934l-128.3072 124.791467a37.205333 37.205333 0 0 0 0 53.589333 39.7312 39.7312 0 0 0 55.0912 0z" p-id="2988"></path></svg>