<?xml version="1.0" standalone="no"?><!DOCTYPE svg PUBLIC "-//W3C//DTD SVG 1.1//EN" "http://www.w3.org/Graphics/SVG/1.1/DTD/svg11.dtd"><svg t="1542681606411" class="icon" style="" viewBox="0 0 1024 1024" version="1.1" xmlns="http://www.w3.org/2000/svg" p-id="3266" xmlns:xlink="http://www.w3.org/1999/xlink" width="200" height="200"><defs><style type="text/css"></style></defs><path d="M938.667 559.787V261.973c0-17.92-5.12-33.28-14.507-46.933 0-0.853-0.853-1.707-0.853-1.707l-2.56-2.56c-15.36-19.626-38.4-31.573-64.854-31.573H168.107c-46.08 0-82.774 37.547-82.774 82.773v502.614c0 46.08 37.547 82.773 82.774 82.773H855.04c46.08 0 82.773-36.693 82.773-82.773v-204.8zM172.373 222.72h678.4c5.974 0 11.094 0.853 16.214 3.413L525.653 523.947 160.427 225.28c3.413-1.707 7.68-2.56 11.946-2.56z m678.4 581.12h-678.4c-23.893 0-43.52-19.627-43.52-43.52V266.24c0-2.56 0-4.267 0.854-6.827l381.44 311.467c3.413 2.56 7.68 3.413 11.093 4.267h6.827c4.266 0 7.68-1.707 11.093-4.267l353.28-307.2v497.493c0.853 23.04-18.773 42.667-42.667 42.667z" p-id="3267"></path></svg>