<?xml version="1.0" standalone="no"?><!DOCTYPE svg PUBLIC "-//W3C//DTD SVG 1.1//EN" "http://www.w3.org/Graphics/SVG/1.1/DTD/svg11.dtd"><svg t="1542681950450" class="icon" style="" viewBox="0 0 1024 1024" version="1.1" xmlns="http://www.w3.org/2000/svg" p-id="5355" xmlns:xlink="http://www.w3.org/1999/xlink" width="200" height="200"><defs><style type="text/css"></style></defs><path d="M891.733 797.867l-102.4-142.934V448c0-123.733-81.066-228.267-194.133-264.533 2.133-4.267 2.133-8.534 2.133-12.8 0-46.934-38.4-85.334-85.333-85.334s-85.333 38.4-85.333 85.334c0 4.266 0 8.533 2.133 12.8C315.733 219.733 234.667 324.267 234.667 448v206.933l-102.4 142.934C128 804.267 128 812.8 130.133 819.2c4.267 8.533 10.667 12.8 19.2 12.8h236.8C396.8 891.733 448 938.667 512 938.667S627.2 891.733 637.867 832h236.8c8.533 0 14.933-4.267 19.2-10.667 4.266-8.533 2.133-17.066-2.134-23.466z m-422.4-627.2C469.333 147.2 488.533 128 512 128s42.667 19.2 42.667 42.667v4.266c-14.934-2.133-27.734-4.266-42.667-4.266s-27.733 2.133-42.667 4.266v-4.266zM512 896c-40.533 0-72.533-27.733-83.2-64h164.267c-8.534 36.267-40.534 64-81.067 64zM189.867 789.333l83.2-115.2c2.133-4.266 4.266-8.533 4.266-12.8V448c0-130.133 104.534-234.667 234.667-234.667S746.667 317.867 746.667 448v213.333c0 4.267 2.133 8.534 4.266 12.8l83.2 115.2H189.867z" p-id="5356"></path></svg>