<?xml version="1.0" standalone="no"?><!DOCTYPE svg PUBLIC "-//W3C//DTD SVG 1.1//EN" "http://www.w3.org/Graphics/SVG/1.1/DTD/svg11.dtd"><svg class="icon" width="200px" height="200.00px" viewBox="0 0 1024 1024" version="1.1" xmlns="http://www.w3.org/2000/svg"><path fill="#ffffff" d="M432.053 208.005c0-17.54 10.6-36.029 28.153-36.029H587.53c17.546 0 30.236 18.49 30.236 36.029v12.12H432.053v-12.12z m395.281 15.015h-157.21v-15.015c0-48.471-39.66-88.138-88.131-88.138H460.948c-48.478 0-88.138 39.667-88.138 88.138v15.015H216.522c-64.216 0-116.752 52.537-116.752 116.752v240.843c0 2.022 4.67 6.466 6.7 6.466l340.949 16.99c8.928 0.44 16.411-6.68 16.411-15.615v-27.912c0-30.821 25.223-57.426 56.038-56.745 31.702 0.701 59.243 26.811 59.243 58.623v26.041c0 8.935 7.476 16.054 16.404 15.614l345.75-16.996c2.023 0 1.906-4.444 1.906-6.466V338.857c0-63.713-52.123-115.837-115.837-115.837z m113.933 406.532L594.34 647.078c-7.297 0.365-13.165 5.902-14.3 13.124-2.785 17.711-13.983 48.058-58.011 47.92-41.937-0.13-53.664-30.814-56.938-48.601-1.328-7.23-7.305-12.677-14.651-13.041l-343.976-16.928c-2.022 0-6.693-0.289-6.693 1.734V770.13c0 62.846 51.415 114.262 114.255 114.262H833.56c60.536 0 109.613-49.07 109.613-109.606V631.286c0-2.023 0.116-1.734-1.906-1.734z" /></svg>