<?xml version="1.0" standalone="no"?><!DOCTYPE svg PUBLIC "-//W3C//DTD SVG 1.1//EN" "http://www.w3.org/Graphics/SVG/1.1/DTD/svg11.dtd"><svg class="icon" width="200px" height="200.00px" viewBox="0 0 1024 1024" version="1.1" xmlns="http://www.w3.org/2000/svg"><path fill="#ffffff" d="M508.477686 66.291762C469.280649 87.064385 124.635738 270.405362 54.00882 308.51861c-5.418945 2.890104-5.418945 10.657259 0 13.547363l454.288234 240.420533c2.167578 1.264421 4.877051 1.264421 7.22526 0l454.830129-240.420533c5.418945-2.890104 5.418945-10.657259 0-13.727995l-454.649497-242.046216c-2.34821-1.264421-5.057682-1.264421-7.22526 0z m3.61263-1.986946M511.909684 768.406421c-5.599577 0-11.018522-1.264421-16.076204-3.973893L66.833657 536.294937c-3.070736-1.625684-5.780208-3.61263-8.128418-5.960839-10.476627-10.476627-10.476627-23.120833-10.476627-28.539778 0-18.966308 15.353678-34.319986 34.319986-34.319986 11.560416 0 21.675781 5.599577 27.997883 14.45052l401.543835 213.325807 404.975833-213.506438c13.366731-13.1861 35.042512-13.1861 48.228612 0.180631 6.683366 6.683366 10.476627 15.895572 10.476627 25.649674 0 12.644205-7.044629 24.385253-18.243782 30.346093L527.985888 764.432528c-5.057682 2.528841-10.657259 3.973893-16.076204 3.973893z m404.795202-238.072323zM511.909684 961.682131c-5.599577 0-11.018522-1.264421-16.076204-3.973893L66.833657 729.570647c-3.070736-1.625684-5.780208-3.61263-8.128418-5.960839-10.476627-10.476627-10.476627-23.120833-10.476627-28.539778 0-18.966308 15.353678-34.319986 34.319986-34.319986 11.560416 0 21.675781 5.599577 27.997883 14.45052l401.543835 213.325807 404.975833-213.506438c13.366731-13.1861 35.042512-13.1861 48.228612 0.180631 6.683366 6.683366 10.476627 15.895572 10.476627 25.649674 0 12.644205-7.044629 24.385253-18.243782 30.346093L527.985888 957.708238c-5.057682 2.528841-10.657259 3.973893-16.076204 3.973893z m404.795202-238.072323z" /></svg>