<?xml version="1.0" standalone="no"?><!DOCTYPE svg PUBLIC "-//W3C//DTD SVG 1.1//EN" "http://www.w3.org/Graphics/SVG/1.1/DTD/svg11.dtd"><svg class="icon" width="200px" height="200.00px" viewBox="0 0 1024 1024" version="1.1" xmlns="http://www.w3.org/2000/svg"><path fill="#ffffff" d="M512.268924 605.18902a302.59451 302.59451 0 1 0-302.550451-302.638569 302.550451 302.550451 0 0 0 302.550451 302.638569zM991.714681 921.309522a510.33084 510.33084 0 0 0-188.042133-317.970964 60.316232 60.316232 0 0 0-80.362898 5.198916 301.184634 301.184634 0 0 1-427.368484 0 58.642005 58.642005 0 0 0-80.362898-5.198916 512.269418 512.269418 0 0 0-182.843217 317.970964 86.751396 86.751396 0 0 0 88.910268 102.612494h781.29127a87.412275 87.412275 0 0 0 88.778092-102.612494z" /></svg>