<?xml version="1.0" standalone="no"?><!DOCTYPE svg PUBLIC "-//W3C//DTD SVG 1.1//EN" "http://www.w3.org/Graphics/SVG/1.1/DTD/svg11.dtd"><svg class="icon" width="64px" height="64.00px" viewBox="0 0 1024 1024" version="1.1" xmlns="http://www.w3.org/2000/svg"><path fill="#ffffff" d="M700 133.3H229.9s-59.2 0.7-67.3 68v625.2s-0.6 72.1 79.7 72.1h547.4s63.5-3.6 68.5-68.9V323.9l-48.8 52.3-0.4 473-597.6-0.6V181.5H649l51-48.2z m59.3 33.1l73.8 57.4 15.4-20.6s11.7-15.4 0-34.1c0 0-10.7-17.7-29-28 0 0-24.8-13.5-41.1 2.8l-19.1 22.5z m50.5 87.8L684.1 420.9s-11.2 20.5-30.8 29.9l-55.6 26.6s-14.9 7.5-18.2-13.1l9.8-61.2s-0.9-11.2 14-30.8l133.1-176.1 73.4 58zM344.6 567.1h329.3s10.7-2.8 10.3 15.4v15.1s-2.4 8.4-15 6.5l-321.3 0.3s-11.2 0.7-12.1-10.1v-19.8c-0.1 0.1 1.8-7.4 8.8-7.4z m0 122.4h329.3s10.7-2.8 10.3 15.4V720s-2.4 8.4-15 6.5l-321.3 0.3s-11.2 0.7-12.1-10.1V697c-0.1 0 1.8-7.5 8.8-7.5z" /></svg>