<?xml version="1.0" standalone="no"?><!DOCTYPE svg PUBLIC "-//W3C//DTD SVG 1.1//EN" "http://www.w3.org/Graphics/SVG/1.1/DTD/svg11.dtd"><svg class="icon" width="200px" height="200.00px" viewBox="0 0 1024 1024" version="1.1" xmlns="http://www.w3.org/2000/svg"><path fill="#ffffff" d="M511.46375094 543.24636688c-17.58185813 0-32.63715656-6.26530688-45.21745688-18.69373219a61.03119187 61.03119187 0 0 1-18.79498219-44.86401938V96.52335687c0-17.48154563 6.26530688-32.58746906 18.79498219-45.36933187A61.13244187 61.13244187 0 0 1 511.514375 32.00560625c18.23904469 0 33.64871812 6.36561937 46.17839344 19.14841875 12.58030031 12.78186281 18.79404469 27.88778625 18.79404469 45.36933188v383.16525843c0 17.48060812-6.21374438 32.43559406-18.79404469 44.91558188-12.52967531 12.37686281-27.93934781 18.64216969-46.17839344 18.64216969m261.10287562-372.10089375a455.21112656 455.21112656 0 0 1 81.29054719 73.10617968c23.69529 27.23247375 43.95558281 56.63619563 60.93087938 88.21304063a440.81207812 440.81207812 0 0 1 51.83620031 207.70011375 432.22271156 432.22271156 0 0 1-36.07309031 175.97045719 459.65674781 459.65674781 0 0 1-97.50928219 143.18236218 463.95143063 463.95143063 0 0 1-144.34392375 96.80147063 441.92395219 441.92395219 0 0 1-177.23420625 35.82090281 439.70020406 439.70020406 0 0 1-176.32483125-35.82090281A469.45830094 469.45830094 0 0 1 190.3909325 859.31762656 448.89519563 448.89519563 0 0 1 92.83196375 716.13526437a438.18520594 438.18520594 0 0 1-35.56871625-175.87014468c0-35.66902875 4.24405875-70.57962 12.68155031-104.88552469a465.71955469 465.71955469 0 0 1 36.12371531-97.81209375 433.48645969 433.48645969 0 0 1 57.89994469-86.69710406 494.164215 494.164215 0 0 1 77.19836344-72.65149313 63.15369 63.15369 0 0 1 48.29995406-12.12561375c17.27810812 2.72812219 31.32372 11.11498969 42.18652219 25.26091313 10.81217719 14.09623687 14.85373594 29.85934687 12.12561375 47.339955a63.45650156 63.45650156 0 0 1-25.36310062 42.38902219 314.20188656 314.20188656 0 0 0-132.06549938 259.13131406c0 44.35964531 8.43655406 86.19273 25.36122656 125.499255a324.15437719 324.15437719 0 0 0 69.6205575 102.86427656 333.29968125 333.29968125 0 0 0 103.62271407 69.56993344c39.6093375 17.17779562 81.84742125 25.71560063 126.55956562 25.71560062 44.66245688 0 86.84991656-8.58749156 126.45925406-25.71560062a333.24905625 333.24905625 0 0 0 103.62177657-69.56993344 330.11593406 330.11593406 0 0 0 70.12587-102.86427656 308.54314219 308.54314219 0 0 0 25.91810062-125.499255 317.08094625 317.08094625 0 0 0-36.57840281-148.73892A315.71782312 315.71782312 0 0 0 698.44982187 276.03193531a60.52681687 60.52681687 0 0 1-26.92872468-41.32777312 63.25493906 63.25493906 0 0 1 52.34245031-74.11680375c17.63248313-3.03187219 33.85027969 0.50531156 48.75464063 10.55905219" /></svg>