<?xml version="1.0" standalone="no"?><!DOCTYPE svg PUBLIC "-//W3C//DTD SVG 1.1//EN" "http://www.w3.org/Graphics/SVG/1.1/DTD/svg11.dtd"><svg t="1576133133857" class="icon" viewBox="0 0 1024 1024" version="1.1" xmlns="http://www.w3.org/2000/svg" p-id="4783" xmlns:xlink="http://www.w3.org/1999/xlink" width="200" height="200"><defs><style type="text/css"></style></defs><path d="M782.06976 557.40416A226.32448 226.32448 0 0 0 737.28 552.96c-72.72448 0-137.4208 34.46784-178.5856 87.9616-14.72512-20.82816-40.96-36.67968-81.3056-50.33984-53.12512-19.21024-78.4384-32.72704-78.4384-57.6512 0-9.5232 4.38272-40.6528 60.6208-40.6528l2.4576 0.02048 2.27328-0.02048c34.69312 0 60.19072 7.61856 77.824 14.19264l12.75904-47.75936c-22.17984-9.3184-48.06656-14.47936-78.66368-15.7696l-7.94624-0.36864v-50.95424h-39.36256v53.94432l-6.94272 1.26976c-62.1568 11.30496-99.26656 47.2064-99.26656 95.92832 0 46.08 32.0512 75.71456 107.29472 99.18464 43.45856 13.63968 72.45824 28.73344 72.45824 58.28608 0 27.27936-26.43968 44.17536-68.97664 44.17536h-3.66592c-40.0384 0-74.07616-12.02176-95.00672-21.77024l-14.4384 52.26496c24.576 11.4688 61.82912 19.70176 97.28 21.17632l8.23296 0.32768v55.07072h39.424v-58.22464l6.94272-1.14688A163.06176 163.06176 0 0 0 512 780.41088a224.39936 224.39936 0 0 0 55.1936 145.55136c-35.51232 4.75136-73.5232 6.69696-112.88576 6.69696-190.34112 0-357.02784-43.15136-357.02784-232.5504 0-171.70432 89.25184-302.20288 194.2528-369.13152h323.64544c76.43136 48.5376 136.78592 128.98304 166.89152 226.42688zM618.2912 284.07808c0 9.37984-8.58112 16.9984-19.08736 16.9984h-294.5024c-10.5472 0-19.1488-7.61856-19.1488-16.9984 0-9.4208 8.6016-17.03936 19.1488-17.03936h294.5024c10.5472 0 19.08736 7.63904 19.08736 17.03936z m-33.23904-26.76736l-269.312 0.8192c-13.14816 0-68.89472-66.47808-68.89472-117.43232 0-61.5424 50.36032-56.2176 89.00608-56.60672 33.0752-0.32768 67.64544-48.64 92.69248-29.81888 34.89792 26.2144 43.06944 88.064 52.1216 88.064 15.44192 0-0.4096-80.5888 76.24704-80.5888 76.5952 0 107.17184 18.2272 97.0752 75.71456-10.6496 60.70272-56.56576 118.21056-68.93568 119.84896zM737.28 983.04c-113.11104 0-204.8-91.68896-204.8-204.8s91.68896-204.8 204.8-204.8 204.8 91.68896 204.8 204.8-91.68896 204.8-204.8 204.8z m-25.31328-149.9136c-24.08448 8.84736-52.59264 15.9744-85.03296 21.38112l2.94912 22.85568c30.72-5.65248 57.99936-13.02528 82.08384-22.36416V833.1264z m-47.18592-175.96416c-8.84736 27.0336-18.92352 51.85536-30.72 73.97376-2.94912 4.17792-6.144 7.12704-9.58464 8.6016l5.65248 21.13536c12.53376-1.72032 24.576-3.44064 36.37248-4.9152-11.30496 19.90656-20.64384 33.91488-28.01664 42.02496-2.94912 2.70336-6.38976 4.9152-10.56768 6.63552l6.38976 21.13536c23.59296-2.94912 48.66048-9.09312 75.20256-17.94048v-20.8896c-16.22016 5.40672-31.9488 9.8304-47.67744 13.27104 13.76256-17.69472 30.47424-45.71136 50.3808-84.04992l-20.8896-7.86432c-4.66944 9.33888-9.09312 18.432-13.5168 26.78784-8.84736 1.2288-17.44896 2.21184-26.05056 3.19488 11.79648-18.432 23.59296-42.51648 35.38944-72.25344l-22.36416-8.84736z m166.87104 43.008l-58.73664 8.11008V658.6368H749.568v52.8384l-35.6352 5.16096 3.44064 21.62688 32.68608-4.66944c0.49152 9.8304 0.98304 19.16928 1.96608 28.2624l-42.27072 6.63552 3.19488 22.1184 42.02496-6.63552c0.98304 5.40672 1.96608 10.81344 3.19488 15.9744 2.94912 12.288 6.38976 23.59296 10.81344 33.91488a195.2768 195.2768 0 0 1-58.9824 29.4912l13.5168 18.67776a187.24864 187.24864 0 0 0 56.03328-28.01664c1.2288 1.96608 2.70336 4.17792 4.42368 6.38976 11.0592 14.7456 22.85568 22.36416 35.14368 22.60992 13.76256 0 24.08448-15.9744 31.45728-47.43168l-19.90656-13.27104c-3.93216 23.3472-8.6016 35.14368-14.25408 35.14368-5.89824 0-12.53376-5.89824-19.90656-17.2032 14.25408-12.77952 27.27936-28.2624 39.56736-45.95712l-18.432-12.53376a214.60992 214.60992 0 0 1-30.72 36.864 189.3376 189.3376 0 0 1-7.86432-30.96576l-0.98304-7.12704 63.65184-10.07616-3.44064-22.1184-62.91456 9.8304a461.4144 461.4144 0 0 1-1.96608-27.77088l61.44-8.6016-3.19488-21.62688z m-31.21152-42.51648l-17.69472 11.30496c11.30496 11.0592 20.39808 21.13536 27.0336 30.47424l18.18624-12.77952c-6.38976-8.11008-15.72864-17.69472-27.52512-28.99968z" p-id="4784"></path></svg>