<?xml version="1.0" standalone="no"?><!DOCTYPE svg PUBLIC "-//W3C//DTD SVG 1.1//EN" "http://www.w3.org/Graphics/SVG/1.1/DTD/svg11.dtd"><svg t="1582613932329" class="icon" viewBox="0 0 1024 1024" version="1.1" xmlns="http://www.w3.org/2000/svg" p-id="3262" xmlns:xlink="http://www.w3.org/1999/xlink" width="64" height="64"><defs><style type="text/css"></style></defs><path d="M796.3 839v35c0 12.5-6.7 24.1-17.5 30.3a34.77 34.77 0 0 1-35 0c-10.8-6.3-17.5-17.8-17.5-30.3v-35H306.4v35c0 12.5-6.7 24.1-17.5 30.3-10.8 6.2-24.2 6.2-35 0-10.8-6.3-17.5-17.8-17.5-30.3v-35c-18.6 0-36.4-7.4-49.5-20.5a70.01 70.01 0 0 1-20.5-49.5V244.2c0-38.7 31.3-70 70-70h140v-70c0-9.3 3.7-18.2 10.2-24.7 6.6-6.6 15.5-10.2 24.7-10.2h210c19.3 0 35 15.7 35 35v70h140c38.7 0 70 31.3 70 70v524.9c0 18.6-7.4 36.4-20.5 49.5-13.2 13-31 20.3-49.5 20.3zM411.4 349.1c0-12.5-6.7-24.1-17.5-30.3a34.77 34.77 0 0 0-35 0c-10.8 6.3-17.5 17.8-17.5 30.3V664c0 12.5 6.7 24.1 17.5 30.3 10.8 6.3 24.2 6.3 35 0s17.5-17.8 17.5-30.3V349.1z m192.4-209.9c0-19.3-15.7-35-35-35h-105c-19.3 0-35 15.7-35 35v35h175v-35z m87.5 209.9c0-12.5-6.7-24.1-17.5-30.3a34.77 34.77 0 0 0-35 0c-10.8 6.3-17.5 17.8-17.5 30.3V664c0 12.5 6.7 24.1 17.5 30.3 10.8 6.3 24.2 6.3 35 0s17.5-17.8 17.5-30.3V349.1z m0 0" p-id="3263"></path></svg>