<?xml version="1.0" standalone="no"?><!DOCTYPE svg PUBLIC "-//W3C//DTD SVG 1.1//EN" "http://www.w3.org/Graphics/SVG/1.1/DTD/svg11.dtd"><svg t="1582613927898" class="icon" viewBox="0 0 1024 1024" version="1.1" xmlns="http://www.w3.org/2000/svg" p-id="3127" xmlns:xlink="http://www.w3.org/1999/xlink" width="64" height="64"><defs><style type="text/css"></style></defs><path d="M303.565 1005.363c-52.941 0-100.967 1.843-148.736-0.46-60.672-2.868-105.523-57.754-105.984-127.54-0.563-91.801-0.103-183.654-0.103-275.456 0-156.825-0.05-313.651-0.05-470.477 0-79.41 35.174-114.534 114.38-114.534 235.622 0 471.296 0.973 706.918-0.717 62.362-0.46 104.244 35.123 103.732 102.298-2.202 268.134-0.922 536.269-0.973 804.403 0 47.104-27.392 76.851-74.547 82.125-28.11 3.123-46.797-4.967-68.199-27.75-54.118-57.498-76.032-121.652-65.126-198.708 1.433-10.291 0.205-20.94 0.205-34.099 28.57-1.946 55.705-3.789 90.47-6.195-32.307-33.485-47.974-73.523-90.982-95.59v-537.14c-9.268-0.665-16.333-1.69-23.399-1.69-172.237-0.05-344.525 0.359-516.761-0.511-21.556-0.103-27.546 5.836-27.239 27.34 1.178 90.164 0.512 180.378 0.461 270.592v27.136c24.525 0 46.336 1.076 67.891-0.665 6.298-0.512 12.954-8.295 17.715-14.131 27.136-33.332 53.402-67.38 80.64-100.71 14.746-18.074 34.15-25.242 58.01-24.884 61.747 0.973 123.546-0.768 185.242 0.973 12.39 0.358 28.313 8.345 35.993 18.022 24.218 30.413 46.387 62.72 66.97 95.744 5.58 9.011 7.987 29.133 2.611 33.997-11.93 10.854-24.883 2.355-34.15-10.496-7.578-10.496-16.794-19.814-25.293-29.645-49.203-56.832-49.203-56.473-123.546-55.347-19.712 0.307-22.374 7.424-14.592 23.91 17.357 36.71 32.666 74.394 51.303 110.388 16.588 32.05 24.166 65.024 22.22 100.761-1.228 22.733-0.972 45.466-1.843 68.199-1.075 29.952 1.895 33.28 32.87 32.716 40.602-0.665 81.716 2.048 121.703-3.379 42.24-5.734 57.19 23.347 83.354 50.432-19.354 1.28-32.82 2.765-46.336 2.97-67.43 0.819-134.861 1.382-202.292 1.74-35.942 0.205-42.342-5.017-46.182-40.652-4.66-42.752-7.731-85.709-12.39-128.512-0.768-6.963-6.196-13.415-9.472-20.122-5.376 5.325-12.596 9.677-15.872 16.077-47.514 92.416-95.181 184.78-141.108 277.965-9.472 19.2-20.89 28.774-41.83 29.286-15.053 0.41-30.054 2.867-45.005 4.403 36.455-74.803 72.141-148.326 108.135-221.747 17.868-36.454 37.068-72.294 53.76-109.26 3.737-8.244 2.252-21.146-1.434-29.953-13.107-31.385-28.314-61.85-42.547-92.774-3.277-7.117-5.99-14.54-12.032-29.235-18.227 25.241-34.509 44.902-47.463 66.56-11.008 18.33-24.473 25.497-45.619 23.757-20.173-1.69-40.601 0.307-60.928-0.256-13.465-0.41-18.739 4.608-18.688 18.432 0.307 126.77-0.102 253.542 0.717 380.262 0.051 9.216 6.144 19.917 12.493 27.238 25.6 29.39 52.48 57.652 78.745 86.528 4.455 4.813 8.09 10.343 14.183 18.381z m0 0" p-id="3128"></path><path d="M370.278 141.414c39.783-0.05 69.581 29.287 69.428 68.404-0.154 37.17-30.413 67.84-67.636 68.556-38.656 0.717-70.092-29.593-70.553-67.942-0.512-39.066 29.337-69.018 68.761-69.018z m68.045 863.028c-41.267 5.017-74.905 7.526-99.584-30.823-18.893-29.44-44.953-54.272-70.502-84.224 23.45-1.997 42.496-4.3 61.593-4.813 5.325-0.153 12.39 3.687 16.026 7.936 30.208 35.84 59.75 72.192 92.467 111.924z m0 0" p-id="3129"></path></svg>