<?xml version="1.0" standalone="no"?><!DOCTYPE svg PUBLIC "-//W3C//DTD SVG 1.1//EN" "http://www.w3.org/Graphics/SVG/1.1/DTD/svg11.dtd"><svg class="icon" width="200px" height="200.00px" viewBox="0 0 1024 1024" version="1.1" xmlns="http://www.w3.org/2000/svg"><path fill="#ffffff" d="M409.4 779.3h204.5V902H409.4zM695.6 963.3h-368c-22.5 0-40.9-18.4-40.9-40.9s18.4-40.9 40.9-40.9h368c22.5 0 40.9 18.4 40.9 40.9s-18.4 40.9-40.9 40.9zM859.2 69.2H164c-45 0-81.8 36.8-81.8 81.8v553c0 45 36.8 81.8 81.8 81.8h695.2c45 0 81.8-36.8 81.8-81.8V151c0-45-36.8-81.8-81.8-81.8z m-80.3 271.2L579.7 539.6c-6.5 6.5-15 9.7-23.5 9.7s-17-3.2-23.5-9.7l-109.2-111L291 561.1c-12.9 12.9-33.9 13-46.7 0-12.9-12.9-12.9-33.8 0-46.7l155.3-155.3c2.7-2.7 5.8-4.9 9.2-6.5 0.4-0.2 0.9-0.4 1.3-0.6 0.3-0.1 0.5-0.2 0.8-0.3 2.8-1.2 5.7-1.9 8.7-2.3h0.3c0.9-0.1 1.7-0.2 2.6-0.2h2.8c0.9 0 1.7 0.1 2.6 0.2h0.3c3 0.4 5.9 1.1 8.7 2.3 0.3 0.1 0.5 0.2 0.8 0.3 0.4 0.2 0.9 0.4 1.3 0.6 3.3 1.6 6.4 3.8 9.2 6.5l108.5 110.3 175.1-175.1c12.7-12.7 33.4-13.7 46.5-1.4 13.5 12.9 13.8 34.3 0.6 47.5z" /></svg>