<?xml version="1.0" standalone="no"?><!DOCTYPE svg PUBLIC "-//W3C//DTD SVG 1.1//EN" "http://www.w3.org/Graphics/SVG/1.1/DTD/svg11.dtd"><svg t="1575355787881" class="icon" viewBox="0 0 1024 1024" version="1.1" xmlns="http://www.w3.org/2000/svg" p-id="6234" xmlns:xlink="http://www.w3.org/1999/xlink" width="200" height="200"><defs><style type="text/css"></style></defs><path d="M409.491 308.955c-65.375 52.801-75.567 148.603-22.765 213.977a152.166 152.166 0 0 0 23.497 23.353 21.734 21.734 0 0 1 8.173 16.955v32.888c0 12.005 9.732 21.737 21.737 21.737h130.77c12.005 0 21.737-9.732 21.737-21.737v-33.542a21.738 21.738 0 0 1 8.064-16.912v0.022c65.375-52.801 75.567-148.603 22.765-213.976s-148.603-75.568-213.978-22.765z" p-id="6235"></path><path d="M512.744 3.84C231.684 3.84 3.84 231.684 3.84 512.744s227.844 508.903 508.904 508.903 508.903-227.843 508.903-508.903S793.804 3.84 512.744 3.84z m57.59 780.072h-130.44c-12.005-0.005-21.733-9.742-21.727-21.748 0.005-11.997 9.73-21.721 21.727-21.726h130.422c12.005-0.005 21.74 9.721 21.747 21.726s-9.723 21.741-21.728 21.748z m9.326-60.473H426.612c-12.005 0.005-21.74-9.721-21.747-21.726-0.005-12.005 9.722-21.741 21.727-21.748H579.64c12.005-0.005 21.741 9.722 21.748 21.727s-9.723 21.742-21.728 21.747z m71.472-165.94a195.857 195.857 0 0 1-15.02 15.108v23.52c0 36.015-29.195 65.21-65.21 65.21H440.133c-36.015 0-65.21-29.195-65.21-65.21v-22.759c-80.656-71.89-87.76-195.554-15.869-276.21S554.61 209.4 635.264 281.29s87.76 195.554 15.868 276.209z" p-id="6236"></path></svg>