<?xml version="1.0" standalone="no"?><!DOCTYPE svg PUBLIC "-//W3C//DTD SVG 1.1//EN" "http://www.w3.org/Graphics/SVG/1.1/DTD/svg11.dtd"><svg t="1576115695806" class="icon" viewBox="0 0 1024 1024" version="1.1" xmlns="http://www.w3.org/2000/svg" p-id="3130" xmlns:xlink="http://www.w3.org/1999/xlink" width="200" height="200"><defs><style type="text/css"></style></defs><path d="M626.4 587.4c-1.1 1.1-2.7 1.8-4.2 1.8l-93.6 2.3h-0.3c-7 0-12.7-5.7-12.7-12.8l1.5-94.3c0-1.6 0.7-3.2 1.8-4.4 0 0 320.8-320.2 363.4-362.7 2-2 0.6-5.4-2.2-5.4H144c-17.7 0-32 14.3-32 32v736c0 17.7 14.3 32 32 32h736c17.7 0 32-14.3 32-32V321.6c0-7.1-8.6-10.7-13.7-5.7L626.4 587.4zM450 656c-5.4 16.8-23.5 26-40.3 20.6-15-4.8-20.8-2.9-21.5-2.6-2.1 2.6-2.7 14.3 1.9 23.3 0.7 1.4 1.3 2.8 1.8 4.3 6.6 19.8 9.2 36.9 8 52.1-1.4 17.3-8.1 32.4-19.4 43.5-14.7 14.6-35.5 21.8-63.1 21.8-10.6 0-22.1-1.1-34.7-3.2-30.3-5.1-59.3-15-74.8-20.3l-1.4-0.5c-16.7-5.7-25.6-23.9-19.9-40.6 5.7-16.7 23.9-25.6 40.6-19.9l1.4 0.5c13.8 4.7 39.5 13.5 64.7 17.8 32.4 5.5 41.4-0.4 42.1-0.9 0.3-0.6 3-7.7-3.6-28.1-12.2-26.1-14.8-65 7.9-91.5 11.4-13.3 38.2-33.2 89.7-16.6 16.8 5.4 26 23.5 20.6 40.3z" p-id="3131"></path></svg>