<?xml version="1.0" standalone="no"?><!DOCTYPE svg PUBLIC "-//W3C//DTD SVG 1.1//EN" "http://www.w3.org/Graphics/SVG/1.1/DTD/svg11.dtd"><svg t="1582613797184" class="icon" viewBox="0 0 1024 1024" version="1.1" xmlns="http://www.w3.org/2000/svg" p-id="2631" xmlns:xlink="http://www.w3.org/1999/xlink" width="64" height="64"><defs><style type="text/css"></style></defs><path d="M325.24288 136.45824c0-8.11008-8.12032-16.24064-8.12032-24.36096-48.72192-40.59136-129.91488-40.59136-178.6368 0l-56.84224 56.84224c-40.59136 48.72192-40.59136 129.92512 0 178.6368 8.12032 0 16.24064 8.12032 24.36096 8.12032 40.6016-97.4336 121.8048-178.6368 219.2384-219.2384zM942.34624 168.93952l-56.84224-56.84224c-48.72192-48.71168-121.79456-48.71168-170.51648 0-8.11008 8.12032-8.11008 16.24064-16.2304 24.36096 97.44384 48.72192 178.62656 121.8048 219.22816 219.2384 8.12032-8.12032 16.24064-8.12032 24.36096-16.24064 40.6016-40.59136 40.6016-121.79456 0-170.51648z" fill="#3C8EE9" p-id="2632"></path><path d="M512 136.45824c-227.35872 0-405.99552 178.6368-405.99552 405.98528C106.00448 769.81248 284.64128 948.4288 512 948.4288c227.35872 0 405.98528-178.61632 405.98528-405.98528 0-227.34848-178.62656-405.98528-405.98528-405.98528z m249.20064 435.46624a33.64864 33.64864 0 0 1-33.6384 31.20128H491.40736a33.92512 33.92512 0 0 1-33.91488-33.91488V300.22656c0-19.94752 16.41472-36.08576 36.21888-34.59072a33.65888 33.65888 0 0 1 31.20128 33.6384v236.288c0 0.13312 0 0.13312 0.13312 0.13312h201.5744c19.92704 0 36.06528 16.42496 34.58048 36.22912z" fill="#3C8EE9" p-id="2633"></path></svg>