<?xml version="1.0" standalone="no"?><!DOCTYPE svg PUBLIC "-//W3C//DTD SVG 1.1//EN" "http://www.w3.org/Graphics/SVG/1.1/DTD/svg11.dtd"><svg t="1576115719901" class="icon" viewBox="0 0 1024 1024" version="1.1" xmlns="http://www.w3.org/2000/svg" p-id="3262" xmlns:xlink="http://www.w3.org/1999/xlink" width="200" height="200"><defs><style type="text/css"></style></defs><path d="M700.8 352c12.8-83.2-25.6-163.2-102.4-201.6-73.6-38.4-166.4-25.6-224 35.2s-73.6 150.4-35.2 224 121.6 115.2 204.8 99.2c16-3.2 28.8-6.4 41.6-12.8 12.8-9.6 28.8-19.2 41.6-25.6 38.4-28.8 67.2-70.4 73.6-118.4zM480 704c0-48 12.8-96 38.4-134.4-54.4 0-112-16-156.8-48-16-12.8-41.6-12.8-60.8-3.2-108.8 70.4-172.8 192-172.8 320 0 0-3.2 57.6 28.8 57.6h409.6c-51.2-48-86.4-115.2-86.4-192zM828.8 592c-3.2-12.8-12.8-22.4-22.4-32-9.6-9.6-22.4-16-38.4-22.4-16-6.4-35.2-9.6-54.4-9.6-16 0-32 3.2-48 9.6-12.8 6.4-25.6 16-38.4 25.6-9.6 9.6-19.2 22.4-22.4 38.4-6.4 12.8-9.6 41.6-9.6 44.8 0 3.2 0 9.6 3.2 12.8 3.2 3.2 6.4 6.4 12.8 6.4H672c9.6 0 16-6.4 16-16 0-6.4 0-12.8 3.2-16 0-3.2 3.2-9.6 6.4-12.8 3.2-3.2 3.2-6.4 6.4-6.4 3.2-3.2 6.4-3.2 12.8-3.2 9.6 0 12.8 3.2 16 3.2 3.2 3.2 3.2 12.8 3.2 16 0 3.2 0 6.4-3.2 9.6l-9.6 9.6c-3.2 3.2-9.6 6.4-12.8 12.8-6.4 3.2-12.8 9.6-19.2 16-6.4 6.4-9.6 16-16 25.6-3.2 9.6-6.4 22.4-9.6 35.2v19.2c0 9.6 6.4 16 16 16h57.6c9.6 0 16-6.4 16-16v-12.8c0-6.4 3.2-9.6 6.4-12.8 3.2-3.2 6.4-9.6 12.8-12.8 6.4-3.2 9.6-9.6 16-12.8l19.2-19.2c6.4-6.4 12.8-16 16-25.6 3.2-9.6 6.4-22.4 6.4-38.4 3.2-9.6 0-19.2-3.2-32zM732.8 800h-32c-19.2 0-32 12.8-32 32v32c0 19.2 12.8 32 32 32h32c19.2 0 32-12.8 32-32v-32c0-19.2-16-32-32-32z" p-id="3263"></path></svg>