<?xml version="1.0" standalone="no"?><!DOCTYPE svg PUBLIC "-//W3C//DTD SVG 1.1//EN" "http://www.w3.org/Graphics/SVG/1.1/DTD/svg11.dtd"><svg t="1576115692097" class="icon" viewBox="0 0 1024 1024" version="1.1" xmlns="http://www.w3.org/2000/svg" p-id="2998" xmlns:xlink="http://www.w3.org/1999/xlink" width="200" height="200"><defs><style type="text/css"></style></defs><path d="M880 112H144c-17.6 0-32 14.4-32 32v329.5c0.2 0.2 0.4 0.4 0.6 0.7 21.3 24.9 249.4 176.8 400.1 174 36.4-0.7 58-11 58-37.1 0-19.9-14.8-29.6-45.2-39.9l-53.9-18.6c-66.7-22.7-113.9-64-113.9-141 0-92.1 74.8-139.6 156.4-139.6 75.2 0 122.4 25.5 150.3 55.1 3.5 3.7 3.4 9.5 0 13.2l-57.5 61.5c-3.5 3.7-9.3 4-13 0.6-17.9-16.4-40.7-27.3-73-27.3-29.7 0-44.5 13.8-44.5 32.3 0 17.9 10.1 26.8 32.4 34.4l60.7 20.6C661 493.4 692 538.1 692 604.1c0 86-52.6 150-173.9 147.9-146.1-2.6-308-81.2-406.1-142.8V880c0 17.6 14.4 32 32 32h736c17.6 0 32-14.4 32-32V144c0-17.6-14.4-32-32-32z" p-id="2999"></path></svg>