<?xml version="1.0" standalone="no"?><!DOCTYPE svg PUBLIC "-//W3C//DTD SVG 1.1//EN" "http://www.w3.org/Graphics/SVG/1.1/DTD/svg11.dtd"><svg class="icon" width="200px" height="200.00px" viewBox="0 0 1024 1024" version="1.1" xmlns="http://www.w3.org/2000/svg"><path fill="#ffffff" d="M798.72 644.096c-58.368 0-110.592-28.672-142.336-72.704-32.768 44.032-83.968 72.704-142.336 72.704s-110.592-28.672-142.336-72.704c-7.168 9.216-14.336 17.408-23.552 25.6-36.864 33.792-86.016 50.176-135.168 46.08-37.888-3.072-72.704-19.456-99.328-43.008v186.368c0 89.088 72.704 161.792 161.792 161.792h477.184c89.088 0 161.792-72.704 161.792-161.792V601.088c-30.72 26.624-71.68 43.008-115.712 43.008z m0 0M960.512 334.848L880.64 176.128c-28.672-57.344-86.016-92.16-149.504-92.16H295.936c-63.488 0-120.832 35.84-149.504 92.16L66.56 333.824c-10.24 20.48-15.36 44.032-15.36 66.56 0 93.184 70.656 173.056 161.792 181.248 49.152 4.096 99.328-12.288 135.168-46.08 8.192-8.192 16.384-16.384 23.552-25.6 32.768 44.032 83.968 72.704 142.336 72.704s110.592-28.672 142.336-72.704c31.744 44.032 83.968 72.704 142.336 72.704 97.28 0 177.152-79.872 177.152-177.152v-5.12c0-22.528-5.12-45.056-15.36-65.536zM629.76 317.44h-235.52c-30.72 0-56.32-25.6-56.32-56.32s25.6-56.32 56.32-56.32h235.52c30.72 0 56.32 25.6 56.32 56.32S660.48 317.44 629.76 317.44z" /></svg>