<?xml version="1.0" standalone="no"?><!DOCTYPE svg PUBLIC "-//W3C//DTD SVG 1.1//EN" "http://www.w3.org/Graphics/SVG/1.1/DTD/svg11.dtd"><svg class="icon" width="200px" height="200.00px" viewBox="0 0 1024 1024" version="1.1" xmlns="http://www.w3.org/2000/svg"><path fill="#ffffff" d="M896.903529 811.550118c5.059765 6.264471 8.011294 13.312 5.963295 21.202823-4.638118 17.468235-32.286118 19.576471-46.260706 19.576471H167.393882c-13.974588 0-41.622588-2.168471-46.260706-19.576471-2.048-7.830588 0.903529-14.938353 5.903059-21.202823 8.071529-9.999059 21.624471-18.010353 29.033412-24.576 35.900235-31.683765 72.041412-71.378824 75.535059-122.458353 0.180706-2.650353 0.301176-5.300706 0.301176-7.951059 0 0 0-241.844706 0.481883-241.844706 5.300706-158.780235 82.883765-253.168941 222.689882-272.564706a63.969882 63.969882 0 0 1-21.744941-49.995294c0-44.574118 35.117176-92.16 78.305882-92.16L512 0.060235 512.301176 0c43.248941 0 78.305882 47.585882 78.305883 92.16 0 21.564235-8.312471 38.309647-21.684706 49.995294 139.745882 19.395765 217.389176 113.784471 222.689882 272.564706 0.481882 0 0.481882 241.844706 0.481883 241.844706 0 2.650353 0.120471 5.300706 0.301176 7.951059 3.493647 51.079529 39.634824 90.774588 75.535059 122.458353 7.408941 6.565647 20.961882 14.576941 29.033412 24.576zM512 904.131765H649.938824C638.855529 972.197647 581.511529 1024 512.301176 1024l-0.301176-0.060235-0.301176 0.060235c-69.270588 0-126.554353-51.862588-137.637648-119.868235H512z" /></svg>