<?xml version="1.0" standalone="no"?><!DOCTYPE svg PUBLIC "-//W3C//DTD SVG 1.1//EN" "http://www.w3.org/Graphics/SVG/1.1/DTD/svg11.dtd"><svg t="1576219343423" class="icon" viewBox="0 0 1025 1024" version="1.1" xmlns="http://www.w3.org/2000/svg" p-id="2226" xmlns:xlink="http://www.w3.org/1999/xlink" width="200.1953125" height="200"><defs><style type="text/css"></style></defs><path d="M512.013757 999.038642" p-id="2227"></path><path d="M337.106651 400.20196c0-77.065377 62.700307-139.775684 139.770684-139.775684 77.065377 0 139.770684 62.700307 139.770684 139.775684 0 77.065377-62.705307 139.771934-139.770684 139.771934C399.806958 539.973894 337.106651 477.272337 337.106651 400.20196L337.106651 400.20196z" p-id="2228"></path><path d="M512.013757 0C229.234873 0 0 229.234873 0 512.005007s229.234873 511.995007 512.013757 511.995007c282.775135 0 512.000007-229.224872 512.000007-511.995007S794.788892 0 512.013757 0zM708.245968 396.16444l73.012858 0c7.925039 0 14.34132 6.420031 14.34132 14.33507s-6.416281 14.34632-14.34132 14.34632l-73.012858 0c-7.920039 0-14.34632-6.431281-14.33632-14.34632C693.909648 402.584471 700.325929 396.16444 708.245968 396.16444zM700.282179 788.641362c0-123.184353-100.215491-223.409844-223.404844-223.409844-123.184353 0-223.409844 100.225491-223.409844 223.409844l-25.062623 0c0-113.135554 76.030372-208.779772 179.66338-238.702419-56.626527-26.122628-96.03547-83.399158-96.03547-149.738233 0-90.899195 73.940362-164.849557 164.844557-164.849557 90.899195 0 164.849557 73.960362 164.849557 164.849557 0 66.337825-39.418943 123.614355-96.04047 149.738233 103.628007 29.922647 179.67338 125.556865 179.66338 238.702419L700.282179 788.641362zM781.268826 598.35293l-73.012858 0c-7.925039 0-14.34132-6.421281-14.34132-14.33632 0-7.920039 6.416281-14.34632 14.34132-14.34632l73.012858 0c7.920039 0 14.33632 6.426281 14.33632 14.34632C795.603896 591.931649 789.188864 598.35293 781.268826 598.35293zM781.268826 511.593755l-73.012858 0c-7.925039 0-14.34132-6.426281-14.34132-14.34132 0-7.920039 6.416281-14.34632 14.34132-14.34632l73.012858 0c7.920039 0 14.33632 6.426281 14.33632 14.34632C795.603896 505.168724 789.188864 511.593755 781.268826 511.593755z" p-id="2229"></path></svg>