<?xml version="1.0" standalone="no"?><!DOCTYPE svg PUBLIC "-//W3C//DTD SVG 1.1//EN" "http://www.w3.org/Graphics/SVG/1.1/DTD/svg11.dtd"><svg t="1575352272442" class="icon" viewBox="0 0 1024 1024" version="1.1" xmlns="http://www.w3.org/2000/svg" p-id="1852" xmlns:xlink="http://www.w3.org/1999/xlink" width="200" height="200"><defs><style type="text/css"></style></defs><path d="M176.227 96h437.822c38.785 0 70.227 28.654 70.227 64v704c0 35.346-31.442 64-70.227 64H176.227C137.442 928 106 899.346 106 864V160c0-35.346 31.442-64 70.227-64z m24.14 178c0 8.837 7.164 16 16 16h288.411c8.837 0 16-7.163 16-16v-16c0-8.837-7.163-16-16-16h-288.41c-8.837 0-16 7.163-16 16v16z m0 164c0 8.837 7.164 16 16 16h288.411c8.837 0 16-7.163 16-16v-16c0-8.837-7.163-16-16-16h-288.41c-8.837 0-16 7.163-16 16v16z m0 164c0 8.837 7.164 16 16 16h288.411c8.837 0 16-7.163 16-16v-16c0-8.837-7.163-16-16-16h-288.41c-8.837 0-16 7.163-16 16v16z m0 164c0 8.837 7.164 16 16 16h288.411c8.837 0 16-7.163 16-16v-16c0-8.837-7.163-16-16-16h-288.41c-8.837 0-16 7.163-16 16v16zM847.774 96C886.558 96 918 124.654 918 160v704c0 35.346-31.442 64-70.227 64H700.342c11.811-11.92 19.047-27.966 19.047-45.615v-732.77c0-21.985-11.228-41.483-28.54-53.615h156.924z" p-id="1853"></path></svg>