<?xml version="1.0" standalone="no"?><!DOCTYPE svg PUBLIC "-//W3C//DTD SVG 1.1//EN" "http://www.w3.org/Graphics/SVG/1.1/DTD/svg11.dtd"><svg t="1551163478984" class="icon" style="" viewBox="0 0 1024 1024" version="1.1" xmlns="http://www.w3.org/2000/svg" p-id="1642" xmlns:xlink="http://www.w3.org/1999/xlink" width="52" height="52"><defs><style type="text/css"></style></defs><path d="M489.6 684.8l176 176c22.4 22.4 51.2 32 80 32 28.8 0 57.60000001-9.6 76.8-32l3.2 0c19.2-22.4 32-48 32-76.8 0-28.8-9.6-57.60000001-32-80l-195.2-195.2-211.2-211.2c-9.6-9.6-22.4-16-35.2-16s-25.6 6.4-35.2 15.99999999c-9.6 9.6-12.8 22.4-12.8 35.20000001 0 12.8 3.2 25.6 12.8 35.2L652.8 672c12.8 12.8 12.8 35.2 0 48-6.4 6.4-16 9.6-25.6 9.6-9.6 0-19.2-3.2-25.6-9.6L297.6 416c-22.4-22.4-35.2-51.2-35.2-83.19999999 0-28.8 12.8-60.80000001 35.2-83.20000001 22.4-22.4 54.4-35.2 83.2-35.2 28.8 0 60.80000001 12.8 83.2 35.2L672 457.6l195.2 195.2c35.2 35.2 51.2 80 51.2 128 0 44.8-15.99999999 89.6-51.2 124.8l-3.2 3.2C828.8 944 784 960 736 960c-44.8 0-92.8-15.99999999-128-51.2l-195.2-195.2-246.4-246.4C121.6 422.4 96.00000001 364.8 96 300.8c0-60.80000001 22.4-118.4 70.4-166.4 44.8-44.8 105.6-67.2 166.4-67.2 60.80000001 0 121.6 22.4 166.4 67.19999999L841.6 473.6c6.4 6.4 9.6 16 9.6 25.6 0 9.6-3.2 19.2-9.6 25.6-6.4 6.4-16 9.6-25.6 9.6-9.6 0-19.2-3.2-25.6-9.6l-339.20000001-339.2c-64-64-169.6-64.00000001-233.59999999 0s-64.00000001 169.6-1e-8 233.6l272.00000001 265.6" fill="#000000" p-id="1643"></path></svg>